<svg width="24" height="25" viewBox="0 0 24 25" fill="none" xmlns="http://www.w3.org/2000/svg">
<g id="ant-design:phone-filled">
<path id="Vector" d="M3.24375 6.07012L5.73984 3.57637C5.91592 3.39952 6.1252 3.2592 6.35567 3.16347C6.58614 3.06774 6.83325 3.01849 7.08281 3.01855C7.5914 3.01855 8.06953 3.21777 8.42812 3.57637L11.1141 6.2623C11.2909 6.43838 11.4312 6.64767 11.527 6.87813C11.6227 7.1086 11.6719 7.35572 11.6719 7.60527C11.6719 8.11387 11.4727 8.59199 11.1141 8.95059L9.15 10.9146C9.60974 11.928 10.2489 12.8499 11.0367 13.6357C11.8225 14.4254 12.7443 15.067 13.7578 15.5295L15.7219 13.5654C15.898 13.3886 16.1072 13.2483 16.3377 13.1525C16.5682 13.0568 16.8153 13.0076 17.0648 13.0076C17.5734 13.0076 18.0516 13.2068 18.4102 13.5654L21.0984 16.249C21.2755 16.4254 21.4159 16.6351 21.5117 16.866C21.6074 17.0969 21.6565 17.3444 21.6562 17.5943C21.6562 18.1029 21.457 18.5811 21.0984 18.9396L18.607 21.4311C18.0352 22.0053 17.2453 22.3311 16.4344 22.3311C16.2633 22.3311 16.0992 22.317 15.9375 22.2889C12.7781 21.7686 9.64453 20.0881 7.11562 17.5615C4.58906 15.0373 2.91094 11.9061 2.38359 8.7373C2.22422 7.76934 2.54531 6.77324 3.24375 6.07012Z" fill="white"/>
</g>
</svg>
