<svg width="33" height="33" viewBox="0 0 33 33" fill="none" xmlns="http://www.w3.org/2000/svg">
<g id="icon / ionicons / outline / menu-outline">
<path id="Vector (Stroke)" fill-rule="evenodd" clip-rule="evenodd" d="M4.04688 10.5C4.04688 9.94772 4.49459 9.5 5.04688 9.5H27.0469C27.5992 9.5 28.0469 9.94772 28.0469 10.5C28.0469 11.0523 27.5992 11.5 27.0469 11.5H5.04688C4.49459 11.5 4.04688 11.0523 4.04688 10.5Z" fill="#0F172A"/>
<path id="Vector (Stroke)_2" fill-rule="evenodd" clip-rule="evenodd" d="M8.04688 16.5C8.04688 15.9477 8.41997 15.5 8.88021 15.5H27.2135C27.6738 15.5 28.0469 15.9477 28.0469 16.5C28.0469 17.0523 27.6738 17.5 27.2135 17.5H8.88021C8.41997 17.5 8.04688 17.0523 8.04688 16.5Z" fill="#0F172A"/>
<path id="Vector (Stroke)_3" fill-rule="evenodd" clip-rule="evenodd" d="M12.0469 22.5C12.0469 21.9477 12.3454 21.5 12.7135 21.5H27.3802C27.7484 21.5 28.0469 21.9477 28.0469 22.5C28.0469 23.0523 27.7484 23.5 27.3802 23.5H12.7135C12.3454 23.5 12.0469 23.0523 12.0469 22.5Z" fill="#0F172A"/>
</g>
</svg>
