<svg width="48" height="42" viewBox="0 0 48 42" fill="none" xmlns="http://www.w3.org/2000/svg">
<g clip-path="url(#clip0_113_863)">
<path d="M56.8322 16.9912C56.4876 17.0421 56.1353 17.069 55.7767 17.069C52.4744 17.069 49.6795 14.8988 48.7208 11.9013C48.5569 11.3889 53.5263 2.60066 53 2.5C47.5158 1.45104 47.5 2.81482 47.5 -3C47.5 -10.9348 41.2072 -8.21868 39.4938 -8.55949C38.0458 -8.84757 36.5492 -9 35.017 -9C22.3234 -8.99991 12.0332 1.3376 12.0332 14.0897C12.0332 26.8417 22.3234 37.1794 35.017 37.1794C46.4572 37.1794 55.9168 28.8137 57.696 17.823C57.7767 17.3243 57.3297 16.9179 56.8322 16.9912Z" fill="#F5B97D"/>
<path d="M24.6373 9.62033C26.2751 9.62033 27.6028 8.28654 27.6028 6.64122C27.6028 4.9959 26.2751 3.66211 24.6373 3.66211C22.9996 3.66211 21.6719 4.9959 21.6719 6.64122C21.6719 8.28654 22.9996 9.62033 24.6373 9.62033Z" fill="#CD916E"/>
<path d="M26.1188 23.7717C27.3472 23.7717 28.343 22.7713 28.343 21.5372C28.343 20.3031 27.3472 19.3027 26.1188 19.3027C24.8903 19.3027 23.8945 20.3031 23.8945 21.5372C23.8945 22.7713 24.8903 23.7717 26.1188 23.7717Z" fill="#CD916E"/>
<path d="M48.3627 21.5379C48.0905 21.5379 47.829 21.3874 47.6988 21.1262L46.9574 19.6365C46.7742 19.2685 46.9226 18.8212 47.289 18.6371C47.6547 18.4538 48.0999 18.6022 48.2839 18.9703L49.0253 20.4599C49.2084 20.828 49.06 21.2753 48.6936 21.4594C48.5872 21.5125 48.4742 21.5379 48.3627 21.5379Z" fill="#A06E50"/>
<path d="M40.2072 17.0682C39.935 17.0682 39.6736 16.9176 39.5433 16.6564C39.3602 16.2884 39.5086 15.8411 39.875 15.657L41.3578 14.9122C41.7242 14.7296 42.1687 14.8773 42.3526 15.2454C42.5358 15.6134 42.3874 16.0607 42.021 16.2448L40.5382 16.9896C40.4317 17.0427 40.3187 17.0682 40.2072 17.0682Z" fill="#B67F5F"/>
<path d="M20.1889 15.5786C19.9167 15.5786 19.6552 15.4281 19.5249 15.1669L18.7835 13.6772C18.6004 13.3092 18.7488 12.8619 19.1152 12.6778C19.4809 12.4952 19.9261 12.6429 20.11 13.011L20.8515 14.5006C21.0346 14.8687 20.8862 15.316 20.5198 15.5001C20.4133 15.5532 20.3004 15.5786 20.1889 15.5786Z" fill="#B67F5F"/>
<path d="M29.8264 28.9855C29.5542 28.9855 29.2927 28.835 29.1624 28.5738C28.9793 28.2057 29.1277 27.7584 29.4941 27.5743L30.9769 26.8295C31.3433 26.6462 31.7878 26.7946 31.9718 27.1627C32.1549 27.5307 32.0065 27.978 31.6401 28.1621L30.1573 28.9069C30.0508 28.9601 29.9379 28.9855 29.8264 28.9855Z" fill="#B67F5F"/>
<path d="M29.8266 17.0694C29.6369 17.0694 29.4472 16.9967 29.3024 16.8512L28.561 16.1064C28.2713 15.8154 28.2713 15.3441 28.561 15.0532C28.8506 14.7622 29.3198 14.7622 29.6093 15.0532L30.3508 15.798C30.6404 16.089 30.6404 16.5603 30.3508 16.8512C30.2059 16.9967 30.0163 17.0694 29.8266 17.0694Z" fill="#A06E50"/>
<path d="M37.9816 32.711C37.5718 32.711 37.2402 32.3779 37.2402 31.9662V31.2214C37.2402 30.8096 37.5719 30.4766 37.9816 30.4766C38.3914 30.4766 38.7231 30.8097 38.7231 31.2214V31.9662C38.7231 32.3779 38.3915 32.711 37.9816 32.711Z" fill="#A06E50"/>
<path d="M33.5344 4.40728C33.3447 4.40728 33.155 4.33458 33.0102 4.1891C32.7206 3.89813 32.7206 3.42678 33.0102 3.1359L33.7516 2.39108C34.0412 2.10011 34.5104 2.10011 34.8 2.39108C35.0896 2.68204 35.0896 3.1534 34.8 3.44427L34.0586 4.1891C33.9138 4.33449 33.7241 4.40728 33.5344 4.40728Z" fill="#A06E50"/>
<path d="M17.3476 36.0151L17.2239 34.7223C17.1223 33.6597 16.2852 32.8193 15.2263 32.717L13.2235 32.5234C11.9006 32.3957 10.7595 33.4526 10.7806 34.7862L10.8244 37.5645C10.8517 39.2962 12.7479 40.3352 14.2172 39.4237L16.2998 38.1317C17.0223 37.6837 17.4287 36.8627 17.3476 36.0151Z" fill="#F5B97D"/>
<path d="M8.00439 30.1296L8.7545 29.4619C9.34283 28.9383 9.42328 28.0461 8.93809 27.4272L7.80794 25.9853C7.1237 25.1124 5.76058 25.2743 5.29478 26.2839L4.53322 27.9346C4.17617 28.7086 4.5375 29.6235 5.32534 29.9401L6.46686 30.399C6.9883 30.6084 7.58349 30.5042 8.00439 30.1296Z" fill="#F5B97D"/>
<path d="M4.47908 34.1667C3.68738 34.3803 3.21687 35.1971 3.42816 35.9911C3.63946 36.7851 4.45254 37.2556 5.24424 37.042C6.03594 36.8284 6.50645 36.0116 6.29516 35.2176C6.08386 34.4236 5.27078 33.9531 4.47908 34.1667Z" fill="#F5B97D"/>
<path d="M37.7974 34.3862C25.1037 34.3862 14.8135 24.0486 14.8135 11.2965C14.8135 5.63154 16.8446 0.44312 20.2146 -3.57422C15.2116 0.661389 12.0332 7.0024 12.0332 14.0896C12.0332 26.8416 22.3234 37.1793 35.0171 37.1793C42.0761 37.1793 48.3809 33.9941 52.5928 28.9723C48.5983 32.3521 43.4384 34.3862 37.7974 34.3862Z" fill="#E3AA75"/>
<path d="M47.9787 -0.240829C46.735 -0.709387 45.9954 -1.99673 46.2138 -3.31284L46.4673 -4.84082L46.1203 -4.7362C45.308 -4.49132 44.7049 -3.80368 44.5654 -2.96325L44.3527 -1.68114C44.1779 -0.627401 44.77 0.403337 45.7657 0.778455L47.6488 1.48792C48.6476 1.86412 49.7286 1.47241 50.283 0.632881L47.9787 -0.240829Z" fill="#E3AA75"/>
<path d="M26.2131 8.03827C24.5752 8.03827 23.2474 6.70439 23.2474 5.05898C23.2474 4.64688 23.3308 4.25445 23.4814 3.89746C22.418 4.35024 21.6719 5.4083 21.6719 6.64171C21.6719 8.28712 22.9996 9.621 24.6375 9.621C25.8652 9.621 26.9185 8.87149 27.3691 7.80314C27.0138 7.95439 26.6232 8.03827 26.2131 8.03827Z" fill="#B67F5F"/>
<path d="M27.2791 22.6089C26.0508 22.6089 25.0549 21.6085 25.0549 20.3744C25.0549 20.0593 25.1214 19.7602 25.2386 19.4883C24.4495 19.8316 23.8965 20.6193 23.8965 21.5382C23.8965 22.7723 24.8923 23.7727 26.1207 23.7727C27.0354 23.7727 27.8195 23.2171 28.1612 22.4244C27.8906 22.5421 27.5928 22.6089 27.2791 22.6089Z" fill="#B67F5F"/>
<path d="M40.2057 26.7522C41.8435 26.7522 43.1711 25.4184 43.1711 23.7731C43.1711 22.1277 41.8435 20.7939 40.2057 20.7939C38.5679 20.7939 37.2402 22.1277 37.2402 23.7731C37.2402 25.4184 38.5679 26.7522 40.2057 26.7522Z" fill="#CD916E"/>
<path d="M41.7814 25.1691C40.1436 25.1691 38.8158 23.8353 38.8158 22.1898C38.8158 21.7777 38.8992 21.3853 39.0498 21.0283C37.9863 21.4811 37.2402 22.5392 37.2402 23.7726C37.2402 25.418 38.568 26.7519 40.2059 26.7519C41.4335 26.7519 42.4868 26.0023 42.9374 24.934C42.5823 25.0853 42.1915 25.1691 41.7814 25.1691Z" fill="#B67F5F"/>
<path d="M34.2445 11.8553C35.0635 11.8553 35.7274 11.1883 35.7274 10.3656C35.7274 9.54291 35.0635 8.87598 34.2445 8.87598C33.4256 8.87598 32.7617 9.54291 32.7617 10.3656C32.7617 11.1883 33.4256 11.8553 34.2445 11.8553Z" fill="#CD916E"/>
<path d="M35.0323 11.0636C34.2133 11.0636 33.5495 10.3966 33.5495 9.57393C33.5495 9.36783 33.5912 9.17166 33.6664 8.99316C33.1348 9.21955 32.7617 9.74863 32.7617 10.3653C32.7617 11.188 33.4256 11.8549 34.2445 11.8549C34.8584 11.8549 35.385 11.4802 35.6104 10.946C35.4327 11.0216 35.2373 11.0636 35.0323 11.0636Z" fill="#B67F5F"/>
</g>
<defs>
<clipPath id="clip0_113_863">
<rect width="57.002" height="50.9992" fill="white" transform="translate(0.998047 -9)"/>
</clipPath>
</defs>
</svg>
