<svg width="24" height="25" viewBox="0 0 24 25" fill="none" xmlns="http://www.w3.org/2000/svg">
<g id="dashicons:email">
<path id="Vector" d="M4.64467 5.47461H20.5447C22.0447 5.47461 22.8007 6.18261 22.8007 7.62261V17.7266C22.8007 19.1546 22.0447 19.8746 20.5447 19.8746H4.64467C3.14467 19.8746 2.38867 19.1546 2.38867 17.7266V7.62261C2.38867 6.18261 3.14467 5.47461 4.64467 5.47461ZM12.5887 15.7946L20.6767 9.15861C20.9647 8.91861 21.1927 8.36661 20.8327 7.87461C20.4847 7.38261 19.8487 7.37061 19.4287 7.67061L12.5887 12.3026L5.76067 7.67061C5.34067 7.37061 4.70467 7.38261 4.35667 7.87461C3.99667 8.36661 4.22467 8.91861 4.51267 9.15861L12.5887 15.7946Z" fill="white"/>
</g>
</svg>
