<svg width="26" height="27" viewBox="0 0 26 27" fill="none" xmlns="http://www.w3.org/2000/svg">
<g clip-path="url(#clip0_251_9675)">
<path d="M13.3981 6.03418C7.66243 6.03418 2.99609 10.7005 2.99609 16.4362C2.99609 22.1719 7.66243 26.8382 13.3981 26.8382C19.1337 26.8382 23.8001 22.1719 23.8001 16.4362C23.8001 10.7006 19.1338 6.03418 13.3981 6.03418ZM13.3981 25.3148C8.50246 25.3148 4.51953 21.3318 4.51953 16.4362C4.51953 11.5406 8.50246 7.55767 13.3981 7.55767C18.2937 7.55767 22.2766 11.5406 22.2766 16.4362C22.2766 21.3318 18.2937 25.3148 13.3981 25.3148Z" fill="white"/>
<path d="M17.9409 18.3701C17.6216 18.0962 17.1407 18.133 16.8668 18.4524C15.9971 19.4664 14.7328 20.048 13.3982 20.048C12.0638 20.048 10.7995 19.4664 9.92972 18.4524C9.65581 18.1331 9.17496 18.0963 8.85565 18.3702C8.53633 18.6441 8.49952 19.125 8.77343 19.4443C9.93297 20.7961 11.6187 21.5714 13.3983 21.5714C15.1779 21.5714 16.8636 20.7961 18.0232 19.4442C18.297 19.1249 18.2602 18.644 17.9409 18.3701Z" fill="white"/>
<path d="M9.16992 15.2378C9.59059 15.2378 9.93164 14.8968 9.93164 14.4761C9.93164 14.2319 10.1303 14.0332 10.3746 14.0332C10.6188 14.0332 10.8175 14.2319 10.8175 14.4761C10.8175 14.8968 11.1585 15.2378 11.5792 15.2378C11.9999 15.2378 12.3409 14.8968 12.3409 14.4761C12.3409 13.3919 11.4588 12.5098 10.3746 12.5098C9.29032 12.5098 8.4082 13.3919 8.4082 14.4761C8.4082 14.8968 8.74925 15.2378 9.16992 15.2378Z" fill="white"/>
<path d="M16.4214 12.5098C15.3372 12.5098 14.4551 13.3919 14.4551 14.4761C14.4551 14.8968 14.7961 15.2378 15.2168 15.2378C15.6375 15.2378 15.9785 14.8968 15.9785 14.4761C15.9785 14.2319 16.1772 14.0332 16.4214 14.0332C16.6656 14.0332 16.8643 14.2319 16.8643 14.4761C16.8643 14.8968 17.2054 15.2378 17.6261 15.2378C18.0467 15.2378 18.3878 14.8968 18.3878 14.4761C18.3878 13.3918 17.5057 12.5098 16.4214 12.5098Z" fill="white"/>
<path d="M19.6738 5.11719H20.7851C21.2057 5.11719 21.5468 4.77614 21.5468 4.35547C21.5468 3.9348 21.2057 3.59375 20.7851 3.59375H19.6738C19.2532 3.59375 18.9121 3.9348 18.9121 4.35547C18.9121 4.77614 19.2532 5.11719 19.6738 5.11719Z" fill="white"/>
<path d="M22.4551 7.87199C22.8758 7.87199 23.2168 7.53094 23.2168 7.11027V5.99902C23.2168 5.57835 22.8758 5.2373 22.4551 5.2373C22.0344 5.2373 21.6934 5.57835 21.6934 5.99902V7.11027C21.6934 7.53099 22.0344 7.87199 22.4551 7.87199Z" fill="white"/>
<path d="M25.2382 3.59375H24.127C23.7063 3.59375 23.3652 3.9348 23.3652 4.35547C23.3652 4.77614 23.7063 5.11719 24.127 5.11719H25.2382C25.6589 5.11719 25.9999 4.77614 25.9999 4.35547C25.9999 3.9348 25.6589 3.59375 25.2382 3.59375Z" fill="white"/>
<path d="M22.4551 3.47257C22.8758 3.47257 23.2168 3.13153 23.2168 2.71086V1.59961C23.2168 1.17894 22.8758 0.837891 22.4551 0.837891C22.0344 0.837891 21.6934 1.17894 21.6934 1.59961V2.71086C21.6934 3.13153 22.0344 3.47257 22.4551 3.47257Z" fill="white"/>
<path d="M1.64887 4.60938H0.761719C0.341047 4.60938 0 4.95042 0 5.37109C0 5.79177 0.341047 6.13281 0.761719 6.13281H1.64887C2.06954 6.13281 2.41059 5.79177 2.41059 5.37109C2.41059 4.95042 2.06954 4.60938 1.64887 4.60938Z" fill="white"/>
<path d="M3.99805 7.82465V6.9375C3.99805 6.51683 3.657 6.17578 3.23633 6.17578C2.81566 6.17578 2.47461 6.51683 2.47461 6.9375V7.82465C2.47461 8.24532 2.81566 8.58637 3.23633 8.58637C3.657 8.58637 3.99805 8.24532 3.99805 7.82465Z" fill="white"/>
<path d="M4.82422 6.13281H5.71137C6.13204 6.13281 6.47309 5.79177 6.47309 5.37109C6.47309 4.95042 6.13204 4.60938 5.71137 4.60938H4.82422C4.40355 4.60938 4.0625 4.95042 4.0625 5.37109C4.0625 5.79177 4.40355 6.13281 4.82422 6.13281Z" fill="white"/>
<path d="M3.23633 4.56586C3.657 4.56586 3.99805 4.22481 3.99805 3.80414V2.91699C3.99805 2.49632 3.657 2.15527 3.23633 2.15527C2.81566 2.15527 2.47461 2.49632 2.47461 2.91699V3.80414C2.47461 4.22481 2.81566 4.56586 3.23633 4.56586Z" fill="white"/>
</g>
<defs>
<clipPath id="clip0_251_9675">
<rect width="26" height="26" fill="white" transform="translate(0 0.837891)"/>
</clipPath>
</defs>
</svg>
