<svg width="32" height="32" viewBox="0 0 32 32" fill="none" xmlns="http://www.w3.org/2000/svg">
<path fill-rule="evenodd" clip-rule="evenodd" d="M7.70696 7.70711C8.09748 7.31658 8.73064 7.31658 9.12117 7.70711L24.6775 23.2635C25.068 23.654 25.068 24.2871 24.6775 24.6777C24.287 25.0682 23.6538 25.0682 23.2633 24.6777L7.70696 9.12132C7.31643 8.7308 7.31643 8.09763 7.70696 7.70711Z" fill="white"/>
<path fill-rule="evenodd" clip-rule="evenodd" d="M16 16C16 15.4477 16.0187 15 16.0417 15H16.9583C16.9813 15 17 15.4477 17 16C17 16.5523 16.9813 17 16.9583 17H16.0417C16.0187 17 16 16.5523 16 16Z" fill="white"/>
<path fill-rule="evenodd" clip-rule="evenodd" d="M6.70711 24.6778C6.31658 24.2873 6.31658 23.6541 6.70711 23.2636L22.2635 7.70725C22.654 7.31672 23.2871 7.31672 23.6777 7.70725C24.0682 8.09777 24.0682 8.73094 23.6777 9.12146L8.12132 24.6778C7.7308 25.0683 7.09763 25.0683 6.70711 24.6778Z" fill="white"/>
</svg>
