<svg width="62" height="63" viewBox="0 0 62 63" fill="none" xmlns="http://www.w3.org/2000/svg">
<g id="arrow-left-circle/solid">
<path id="Vector" fill-rule="evenodd" clip-rule="evenodd" d="M31 6.4873C17.0887 6.4873 5.8125 17.7636 5.8125 31.6748C5.8125 45.5861 17.0887 56.8623 31 56.8623C44.9113 56.8623 56.1875 45.5861 56.1875 31.6748C56.1875 17.7636 44.9113 6.4873 31 6.4873ZM19.9433 30.3056C19.5805 30.6689 19.3767 31.1614 19.3767 31.6748C19.3767 32.1882 19.5805 32.6807 19.9433 33.044L27.6933 40.794C27.8707 40.9843 28.0846 41.137 28.3223 41.2429C28.5599 41.3488 28.8165 41.4057 29.0767 41.4103C29.3368 41.4149 29.5952 41.3671 29.8365 41.2696C30.0777 41.1722 30.2969 41.0271 30.4808 40.8432C30.6648 40.6592 30.8099 40.44 30.9073 40.1988C31.0048 39.9575 31.0526 39.6991 31.048 39.439C31.0434 39.1788 30.9865 38.9222 30.8806 38.6846C30.7747 38.4469 30.622 38.233 30.4317 38.0556L25.9883 33.6123H40.6875C41.2014 33.6123 41.6942 33.4082 42.0575 33.0448C42.4209 32.6815 42.625 32.1887 42.625 31.6748C42.625 31.1609 42.4209 30.6681 42.0575 30.3048C41.6942 29.9414 41.2014 29.7373 40.6875 29.7373H25.9883L30.4317 25.294C30.7739 24.9267 30.9602 24.4409 30.9514 23.939C30.9425 23.437 30.7392 22.9581 30.3842 22.6031C30.0292 22.2481 29.5503 22.0448 29.0483 22.0359C28.5464 22.0271 28.0606 22.2134 27.6933 22.5556L19.9433 30.3056Z" fill="#192962"/>
</g>
</svg>
